<?xml version="1.0" standalone="no"?>
<!DOCTYPE svg PUBLIC "-//W3C//DTD SVG 20010904//EN"
 "http://www.w3.org/TR/2001/REC-SVG-20010904/DTD/svg10.dtd">
<svg version="1.0" xmlns="http://www.w3.org/2000/svg"
 width="600.000000pt" height="400.000000pt" viewBox="0 0 600.000000 400.000000"
 preserveAspectRatio="xMidYMid meet">

<g transform="translate(0.000000,400.000000) scale(0.100000,-0.100000)"
fill="#000000" stroke="none">
<path d="M3405 2389 c-60 -4 -180 -11 -265 -15 -187 -10 -244 -2 615 -89 352
-35 718 -73 813 -83 188 -21 118 -23 767 25 l100 7 -70 8 c-70 7 -245 20 -320
23 -22 1 -48 5 -57 9 -10 4 -40 6 -67 4 -28 -1 -47 1 -44 6 4 5 -27 7 -73 4
-48 -4 -71 -3 -59 3 12 5 -4 6 -42 2 -46 -4 -63 -2 -63 7 0 8 -15 11 -50 8
-28 -1 -50 0 -50 3 0 3 -60 11 -132 17 -353 33 -471 42 -563 47 -55 2 -122 9
-150 14 -67 13 -77 13 -69 0 5 -8 1 -8 -14 0 -22 12 -38 12 -207 0z"/>
<path d="M2720 2333 c26 -11 30 -26 30 -140 0 -62 4 -113 9 -113 5 0 9 33 9
73 -1 39 0 89 1 111 l1 38 73 -7 c39 -3 110 -12 157 -20 47 -8 229 -30 405
-50 176 -19 338 -39 360 -44 22 -5 67 -9 100 -10 33 0 92 -5 130 -11 39 -5
120 -15 180 -21 61 -6 180 -19 265 -30 185 -23 180 -23 180 -5 0 11 22 13 110
12 77 -1 110 -5 110 -13 0 -6 7 -19 16 -27 8 -9 11 -16 5 -16 -6 0 -11 -5 -11
-10 0 -7 7 -7 20 0 11 6 25 8 30 5 6 -3 10 -1 10 5 0 6 4 9 9 6 5 -4 12 0 14
6 4 9 6 9 6 1 1 -8 10 -9 29 -3 16 4 36 4 45 -2 21 -11 40 -1 30 15 -4 7 0 6
10 -2 9 -7 17 -10 17 -5 0 5 7 -2 16 -14 9 -14 25 -22 42 -21 26 0 26 1 5 9
-38 15 -26 30 25 30 26 0 63 3 82 5 41 7 74 -9 51 -24 -8 -5 -27 -5 -44 0 -29
8 -55 1 -29 -8 6 -3 10 -9 6 -14 -3 -5 3 -9 13 -9 13 0 10 -5 -12 -20 l-30
-20 55 -1 c119 -1 92 -16 -50 -28 -80 -6 -160 -14 -177 -17 -39 -6 -43 9 -11
43 l21 23 -26 0 c-15 0 -28 -4 -28 -10 -1 -5 -3 -14 -4 -20 -1 -5 -3 -16 -4
-24 -1 -9 -21 -16 -61 -21 -65 -7 -85 -20 -45 -27 13 -3 22 -1 19 3 -3 5 2 9
11 9 71 0 530 44 595 57 20 4 22 2 10 -6 -19 -14 -5 -14 43 0 29 8 40 7 50 -3
19 -18 28 -46 17 -53 -14 -9 -39 6 -34 20 7 18 -22 26 -36 9 -15 -17 -52 -18
-68 -2 -8 8 -12 8 -12 1 0 -7 -15 -9 -42 -6 -40 5 -42 4 -23 -10 11 -8 23 -13
27 -11 4 3 19 -6 33 -20 14 -15 37 -26 50 -26 14 0 25 -5 25 -10 0 -7 6 -7 19
0 23 12 54 9 61 -5 3 -6 -25 -12 -67 -16 -40 -3 -76 -8 -79 -12 -4 -4 -2 -7 4
-7 7 0 12 -4 12 -10 0 -5 -13 -10 -29 -10 -17 0 -33 5 -36 10 -9 14 -62 13
-71 -2 -4 -6 -3 -8 4 -4 6 3 13 2 17 -4 3 -6 -4 -11 -17 -11 -36 -2 -59 -5
-147 -19 -44 -7 -91 -10 -103 -7 -14 4 -29 0 -40 -10 -15 -13 -23 -14 -44 -5
-29 14 -78 16 -70 3 7 -11 -39 -31 -74 -31 -26 0 -30 -4 -30 -29 0 -28 2 -29
28 -21 15 4 35 11 45 15 20 8 23 -5 5 -23 -9 -9 -9 -12 3 -13 45 -3 76 5 92
24 16 20 18 21 30 6 15 -20 92 -35 102 -20 3 6 -1 11 -9 11 -9 0 -16 4 -16 9
0 5 16 8 35 6 20 -2 33 1 30 6 -4 5 6 14 20 19 35 13 78 13 70 -1 -9 -14 60
-1 98 18 33 16 33 14 6 -32 l-22 -36 39 3 c27 2 38 7 36 17 -2 10 6 12 34 6
32 -6 36 -5 26 8 -10 12 -9 15 6 19 11 3 26 2 34 -3 8 -5 25 -7 36 -4 18 3 20
1 12 -20 -5 -12 -6 -26 -2 -30 4 -3 -17 -5 -46 -4 -29 2 -55 6 -58 11 -9 13
-24 9 -24 -7 0 -12 -15 -15 -77 -15 -42 0 -73 -3 -70 -6 3 -4 44 -7 89 -7 l83
0 -65 -9 c-36 -5 -87 -9 -114 -9 -27 1 -55 -4 -62 -10 -7 -5 -28 -11 -46 -11
-18 0 -40 -4 -49 -9 -8 -4 -38 -10 -65 -13 -105 -12 -144 -19 -144 -25 0 -3
-20 -5 -44 -3 -52 4 -56 -4 -56 -115 0 -82 -15 -108 -54 -94 -17 7 -25 5 -34
-9 -9 -15 -17 -16 -59 -9 -26 5 -84 11 -128 13 -47 3 -103 13 -135 25 -30 11
-82 23 -115 26 -52 6 -90 13 -170 31 -11 3 -40 7 -65 10 -45 4 -45 4 -18 -11
15 -8 87 -27 160 -41 73 -14 165 -32 203 -40 259 -53 327 -59 443 -35 53 10
140 27 192 36 52 10 113 24 134 32 24 8 54 12 76 8 43 -7 245 27 286 48 17 8
48 19 69 23 56 10 143 53 149 73 7 26 16 230 18 451 3 203 3 205 -19 208 -20
3 -21 1 -16 -80 4 -72 3 -81 -10 -70 -11 10 -17 9 -27 -2 -14 -18 -5 -37 15
-29 10 3 15 -1 16 -13 3 -82 -1 -204 -10 -279 -6 -49 -11 -94 -12 -100 0 -5
-6 8 -14 30 l-13 40 -1 -32 c-1 -17 -6 -35 -12 -38 -6 -4 -8 -22 -4 -44 5 -32
3 -37 -14 -38 -19 -2 -21 4 -21 51 0 28 6 58 12 64 10 10 10 15 -1 21 -10 7
-12 56 -6 265 4 141 11 259 15 261 4 3 26 6 47 8 48 5 63 13 63 33 0 12 -8 15
-37 10 -21 -3 -105 -11 -188 -16 -82 -6 -265 -20 -405 -30 -140 -11 -292 -22
-337 -26 -64 -4 -83 -9 -83 -21 0 -9 -7 -13 -17 -9 -10 2 -65 10 -122 16 -57
7 -98 16 -91 20 9 5 6 10 -10 15 -13 4 -25 3 -29 -3 -3 -6 -22 -8 -41 -6 -19
3 -52 4 -73 4 -21 0 -36 3 -33 8 3 6 -13 7 -37 5 -65 -8 -300 25 -310 43 -10
17 -37 19 -37 3 0 -9 -20 -10 -67 -5 -38 4 -93 9 -123 11 -179 16 -276 28
-280 36 -4 5 -22 11 -40 15 -27 4 -31 3 -20 -5 13 -9 12 -11 -3 -11 -64 0
-212 23 -225 36 -11 12 -17 13 -22 3 -7 -11 -88 -6 -260 17 -61 7 -174 13
-160 7z m2810 -233 c-12 -8 -10 -10 8 -10 13 0 20 4 17 10 -3 6 3 10 15 10 12
0 18 -4 15 -10 -3 -6 4 -10 16 -10 18 0 20 -3 11 -12 -6 -6 -51 -13 -99 -15
-81 -4 -110 -14 -97 -35 3 -4 -5 -8 -18 -8 -14 0 -19 3 -11 8 25 16 -3 35 -41
28 -23 -4 -36 -3 -36 4 0 5 6 10 13 10 8 0 7 4 -3 10 -11 7 -3 9 27 7 24 -1
43 -5 43 -9 0 -13 38 -9 53 6 8 8 29 16 48 19 19 2 39 4 44 5 6 1 3 -3 -5 -8z
m-510 -399 c0 -5 -11 -11 -25 -13 -28 -6 -35 8 -7 15 28 8 32 7 32 -2z m696
-179 c-12 -11 -18 7 -10 30 l8 23 4 -23 c2 -13 1 -26 -2 -30z"/>
<path d="M1495 2199 c-103 -11 -385 -17 -379 -8 8 14 -140 11 -154 -3 -7 -7
-12 -8 -12 -2 0 11 -133 -1 -156 -14 -8 -5 24 -15 79 -26 123 -24 514 -108
1027 -219 l155 -34 185 13 c102 6 235 15 295 19 313 20 477 33 482 39 4 3 -6
6 -22 6 -49 0 -270 41 -273 51 -2 5 -8 9 -13 9 -6 0 -8 -4 -5 -8 5 -9 -48 -5
-74 5 -8 4 -21 5 -27 4 -7 -1 -13 2 -13 6 0 4 -19 8 -42 9 -62 1 -148 16 -148
24 0 14 -32 20 -46 9 -16 -13 -88 -3 -107 15 -10 10 -52 15 -136 16 -37 0
-524 80 -541 88 -8 4 -42 5 -75 1z"/>
<path d="M2788 2173 c7 -3 16 -2 19 1 4 3 -2 6 -13 5 -11 0 -14 -3 -6 -6z"/>
<path d="M421 2163 c19 -5 30 -119 28 -278 -3 -229 1 -367 10 -400 8 -27 9
-24 11 25 1 30 1 105 1 165 l-2 110 19 -28 19 -28 6 28 c5 29 -7 45 -30 36
-10 -4 -13 27 -13 166 0 94 3 171 6 171 25 0 101 -26 111 -37 7 -9 19 -12 32
-8 18 5 81 -6 121 -22 20 -8 38 -12 83 -18 21 -3 53 -11 70 -19 18 -7 73 -21
122 -30 149 -29 309 -76 322 -93 7 -9 13 -12 13 -6 0 14 77 8 95 -7 6 -5 14
-7 17 -5 10 10 58 -18 58 -34 0 -14 2 -14 10 -1 9 13 10 13 11 0 0 -13 1 -13
7 1 6 14 14 14 77 -3 39 -10 95 -23 125 -29 30 -6 60 -14 65 -18 15 -11 30 -8
48 11 16 15 14 17 -22 23 -28 5 -41 12 -46 28 -6 22 -6 22 -15 2 -7 -17 -9
-17 -9 -2 -1 19 -17 23 -23 5 -3 -9 -39 -4 -134 19 -71 17 -183 44 -248 60
-90 21 -120 32 -124 45 -4 17 -33 27 -31 11 1 -5 1 -11 0 -14 0 -3 -52 6 -113
21 -82 20 -114 32 -116 44 -2 9 -8 16 -14 16 -5 0 -7 -7 -4 -16 4 -11 2 -15
-7 -11 -7 3 -76 19 -152 37 -77 17 -143 37 -147 43 -4 6 -23 10 -42 9 -19 -2
-71 7 -115 18 -44 11 -83 19 -88 19 -4 -1 -1 -3 8 -6z"/>
<path d="M3825 2140 c-3 -5 -3 -10 2 -10 4 0 1 -5 -7 -10 -9 -6 -11 -10 -3
-10 7 0 10 -6 7 -14 -3 -7 2 -16 10 -19 10 -4 17 3 21 23 9 41 -12 69 -30 40z"/>
<path d="M3065 2129 c22 -4 51 -8 65 -7 l25 0 -25 8 c-14 4 -43 8 -65 8 l-40
0 40 -9z"/>
<path d="M3330 2113 c0 -7 9 -13 19 -13 11 0 27 -3 37 -7 14 -5 15 -3 6 13
-12 22 -62 27 -62 7z"/>
<path d="M3620 2045 c-15 -19 -1 -39 23 -33 13 2 14 7 3 26 -11 21 -14 22 -26
7z"/>
<path d="M5170 2050 c-13 -8 -12 -10 3 -10 9 0 17 5 17 10 0 12 -1 12 -20 0z"/>
<path d="M5010 2030 c0 -5 4 -10 9 -10 6 0 13 5 16 10 3 6 -1 10 -9 10 -9 0
-16 -4 -16 -10z"/>
<path d="M4925 1990 c3 -5 -14 -11 -37 -13 l-43 -4 47 -1 c47 -2 71 11 42 22
-8 3 -12 2 -9 -4z"/>
<path d="M5160 1990 c19 -13 30 -13 30 0 0 6 -10 10 -22 10 -19 0 -20 -2 -8
-10z"/>
<path d="M4255 1980 c-3 -5 1 -10 10 -10 9 0 13 5 10 10 -3 6 -8 10 -10 10 -2
0 -7 -4 -10 -10z"/>
<path d="M4516 1959 c3 -5 -1 -9 -8 -9 -8 0 -6 -5 5 -11 22 -13 50 -4 45 14
-3 6 -14 13 -26 13 -12 1 -19 -3 -16 -7z"/>
<path d="M3073 1924 c-7 -3 -10 -13 -7 -22 5 -15 4 -15 -9 1 -17 20 -28 22
-21 3 4 -11 -11 -15 -68 -20 -116 -11 -205 -15 -180 -10 42 10 11 24 -53 24
-52 0 -66 -4 -77 -19 -12 -17 -33 -21 -134 -29 -97 -8 -120 -7 -127 4 -5 10
-28 14 -72 14 -72 0 -128 -16 -106 -30 13 -7 -25 -12 -211 -23 -50 -3 -57 -1
-64 17 l-7 21 -4 -21 c-3 -16 -10 -21 -26 -18 -19 4 -18 3 3 -6 14 -6 31 -18
38 -27 11 -16 12 -16 12 0 0 14 11 17 63 17 34 0 72 3 85 6 19 6 22 3 22 -26
0 -24 4 -31 14 -27 8 3 71 9 140 13 70 4 126 11 126 16 0 13 103 6 118 -9 18
-18 108 -17 115 1 8 19 86 35 196 38 85 3 95 1 101 -16 6 -19 7 -18 26 1 30
33 253 60 269 33 10 -16 55 -12 55 5 0 39 39 -4 43 -47 2 -18 -2 -45 -10 -60
-17 -35 -17 -38 5 -39 46 -1 -31 -17 -118 -23 -52 -4 -97 -10 -100 -13 -3 -3
28 -3 68 0 70 6 72 5 72 -17 0 -12 -5 -27 -12 -34 -9 -9 -9 -12 3 -12 20 0 39
20 39 41 0 17 19 29 45 29 8 0 11 -7 8 -21 -3 -11 -11 -18 -18 -15 -13 5 -47
-29 -54 -55 -2 -8 -6 -31 -9 -51 -3 -25 -9 -38 -19 -38 -12 0 -12 -2 1 -16 22
-22 20 -34 -6 -35 -13 0 -34 -3 -48 -5 -136 -25 -131 -24 -60 -18 36 2 100 7
142 11 l77 6 -3 -89 c-2 -49 1 -97 6 -108 13 -24 -4 -36 -52 -36 -35 0 -35 0
-10 -13 17 -9 27 -10 32 -3 14 21 21 -5 24 -93 2 -55 -1 -93 -7 -97 -6 -3 -28
-6 -49 -6 -22 0 -44 -6 -50 -13 -9 -11 -17 -12 -31 -4 -11 5 -39 10 -63 11
-35 0 -50 -5 -72 -26 -31 -28 -33 -28 -137 -32 -37 -1 -80 -6 -95 -12 -29 -11
-136 -31 -192 -36 -19 -2 -43 -7 -52 -11 -10 -4 -24 -5 -32 -2 -12 5 -9 12 12
36 25 27 28 28 41 13 12 -15 12 -14 6 7 -6 19 -4 23 8 18 11 -4 16 5 22 39 3
24 11 42 16 39 5 -4 6 -11 3 -17 -4 -7 -2 -8 4 -4 7 4 12 14 12 22 0 13 12 18
33 15 4 0 7 4 7 10 0 6 -6 9 -13 6 -7 -3 -13 3 -13 14 0 13 4 15 13 8 7 -6 17
-7 24 -3 6 4 21 7 32 8 11 1 22 7 25 14 3 9 -3 10 -23 2 -15 -6 -31 -7 -37 -4
-7 5 -8 2 -3 -6 5 -8 4 -11 -3 -7 -5 4 -8 16 -5 27 5 17 0 20 -30 20 -26 0
-39 -6 -47 -20 -7 -13 -19 -19 -40 -17 -27 2 -28 3 -13 15 9 6 12 12 6 12 -7
0 -18 -7 -26 -15 -8 -8 -17 -12 -20 -8 -3 3 -4 -9 -2 -26 2 -18 0 -29 -5 -26
-18 11 -22 -18 -5 -32 11 -7 14 -13 8 -13 -6 0 -13 -8 -15 -17 -3 -10 -6 -22
-7 -28 -2 -5 -7 -17 -12 -26 -5 -10 -4 -20 3 -27 12 -12 1 -35 -15 -29 -7 2
-28 -2 -47 -9 -19 -7 -42 -13 -50 -13 -8 -1 -41 -3 -73 -5 -32 -2 -63 -9 -70
-14 -11 -9 -137 -27 -153 -22 -4 1 -10 -4 -15 -11 -6 -10 -13 -10 -36 0 -15 7
-25 9 -21 5 5 -4 -11 -16 -35 -26 -40 -19 -41 -20 -22 -34 23 -18 26 -17 240
24 227 44 337 62 373 62 17 0 110 14 207 30 97 17 195 30 219 30 28 0 61 9 92
26 43 24 62 27 165 30 136 4 247 18 263 34 7 7 13 99 17 258 3 136 9 255 13
264 12 27 41 31 98 14 149 -43 308 -67 308 -48 0 18 -58 36 -122 37 -36 1 -73
6 -81 13 -7 6 -17 9 -20 6 -3 -3 -11 -2 -18 2 -8 4 -33 9 -56 10 -24 1 -50 7
-58 14 -8 7 -15 10 -15 7 0 -3 -16 1 -36 9 -20 8 -38 13 -41 10 -3 -3 -8 -130
-10 -283 -3 -153 -8 -280 -10 -283 -2 -2 -31 -5 -64 -5 -32 0 -59 -4 -59 -10
0 -5 -5 -4 -11 2 -8 8 -9 137 -4 462 7 402 9 451 24 455 9 2 41 7 71 11 30 3
62 10 70 16 12 8 11 9 -5 5 -49 -12 -273 -18 -279 -7 -7 11 -148 15 -173 5z
m123 -17 c4 -4 0 -7 -9 -7 -9 0 -18 4 -21 9 -7 10 20 9 30 -2z m133 -349 c-13
-25 -20 -23 -15 5 3 12 5 27 5 32 1 6 5 3 10 -4 6 -9 6 -22 0 -33z"/>
<path d="M4126 1923 c-12 -12 -6 -33 9 -33 8 0 15 6 15 14 0 17 -14 28 -24 19z"/>
<path d="M5231 1904 c-39 -19 -42 -22 -23 -28 26 -9 104 13 95 27 -4 6 2 8 15
5 12 -4 25 -2 28 3 3 5 -3 10 -13 10 -10 1 -27 2 -38 3 -11 1 -40 -8 -64 -20z"/>
<path d="M740 1901 c0 -5 12 -11 28 -14 15 -3 36 -9 47 -12 11 -4 5 2 -13 14
-34 22 -62 27 -62 12z"/>
<path d="M4883 1882 c-50 -4 -59 -22 -10 -21 36 0 76 13 61 20 -5 2 -28 3 -51
1z"/>
<path d="M5048 1866 c-16 -5 -28 -13 -28 -18 0 -12 58 -10 66 3 11 18 -9 26
-38 15z"/>
<path d="M5178 1863 c-19 -5 -24 -18 -9 -28 5 -3 17 2 25 11 25 24 22 27 -16
17z"/>
<path d="M4274 1839 c-3 -6 -1 -16 5 -22 9 -9 14 -8 21 3 9 15 4 30 -10 30 -5
0 -12 -5 -16 -11z"/>
<path d="M871 1824 c0 -11 3 -14 6 -6 3 7 2 16 -1 19 -3 4 -6 -2 -5 -13z"/>
<path d="M5068 1823 c7 -3 16 -2 19 1 4 3 -2 6 -13 5 -11 0 -14 -3 -6 -6z"/>
<path d="M4898 1803 c7 -3 16 -2 19 1 4 3 -2 6 -13 5 -11 0 -14 -3 -6 -6z"/>
<path d="M4547 1793 c-10 -10 -8 -43 2 -43 20 0 41 13 35 21 -3 5 0 9 6 9 6 0
8 5 5 10 -7 11 -38 13 -48 3z"/>
<path d="M1150 1780 c8 -5 20 -10 25 -10 6 0 3 5 -5 10 -8 5 -19 10 -25 10 -5
0 -3 -5 5 -10z"/>
<path d="M535 1770 c3 -5 8 -10 11 -10 2 0 4 5 4 10 0 6 -5 10 -11 10 -5 0 -7
-4 -4 -10z"/>
<path d="M2932 1761 c2 -7 7 -12 11 -12 12 1 9 15 -3 20 -7 2 -11 -2 -8 -8z"/>
<path d="M585 1750 c11 -5 27 -9 35 -9 9 0 8 4 -5 9 -11 5 -27 9 -35 9 -9 0
-8 -4 5 -9z"/>
<path d="M1595 1646 c17 -7 48 -16 70 -19 32 -5 28 -2 -20 13 -68 22 -94 25
-50 6z"/>
<path d="M2403 1624 c-31 -24 -57 -34 -95 -38 -29 -4 -82 -11 -118 -16 l-65
-9 65 4 c36 3 119 10 185 15 66 6 194 17 285 25 263 22 427 39 405 43 -11 1
-114 -6 -230 -16 -193 -16 -247 -19 -330 -14 -23 2 -27 4 -15 12 12 8 9 10
-12 10 -14 0 -28 4 -30 8 -1 5 -22 -6 -45 -24z"/>
<path d="M4878 1643 c7 -3 16 -2 19 1 4 3 -2 6 -13 5 -11 0 -14 -3 -6 -6z"/>
<path d="M3807 1633 c-21 -21 7 -49 33 -33 11 7 11 11 1 24 -15 17 -24 20 -34
9z"/>
<path d="M5179 1621 c12 -8 51 -4 51 5 0 2 -15 4 -32 4 -23 0 -29 -3 -19 -9z"/>
<path d="M5010 1590 c-8 -5 -11 -12 -7 -16 4 -4 13 -2 19 4 15 15 7 24 -12 12z"/>
<path d="M662 1570 c1 -13 9 -25 16 -28 17 -5 15 23 -4 39 -14 11 -15 10 -12
-11z"/>
<path d="M1291 1557 c0 -10 -5 -15 -11 -12 -5 3 -10 -3 -10 -14 0 -12 4 -21 9
-21 5 0 18 -3 28 -6 11 -4 14 -3 6 3 -6 4 -13 22 -16 38 -2 17 -5 22 -6 12z"/>
<path d="M626 1521 c10 -17 22 -27 27 -24 6 3 6 8 0 12 -5 3 -12 14 -16 24 -3
9 -11 17 -17 17 -7 0 -4 -12 6 -29z"/>
<path d="M1191 1546 c2 -2 15 -9 29 -15 24 -11 24 -11 6 3 -16 13 -49 24 -35
12z"/>
<path d="M685 1516 c11 -8 27 -16 35 -16 20 0 1 16 -30 25 -24 7 -24 7 -5 -9z"/>
<path d="M1231 1494 c0 -11 3 -14 6 -6 3 7 2 16 -1 19 -3 4 -6 -2 -5 -13z"/>
<path d="M2135 1499 c-4 -6 -4 -13 -1 -16 3 -4 6 -1 6 5 0 6 8 13 18 15 15 4
15 5 0 6 -9 0 -20 -4 -23 -10z"/>
<path d="M1250 1480 c0 -19 3 -21 12 -12 9 9 9 15 0 24 -9 9 -12 7 -12 -12z"/>
<path d="M890 1476 c0 -9 5 -16 10 -16 6 0 10 4 10 9 0 6 -4 13 -10 16 -5 3
-10 -1 -10 -9z"/>
<path d="M2450 1454 c0 -8 -5 -12 -11 -9 -5 4 -22 4 -37 0 -37 -9 -12 -21 48
-24 34 -1 53 4 65 16 16 16 16 17 -1 24 -33 13 -64 10 -64 -7z"/>
<path d="M980 1446 c0 -7 7 -19 15 -26 12 -10 13 -15 4 -21 -8 -5 -5 -10 10
-18 19 -11 21 -9 21 17 0 16 -8 36 -18 45 -23 21 -32 21 -32 3z"/>
<path d="M4005 1430 c3 -5 8 -10 11 -10 2 0 4 5 4 10 0 6 -5 10 -11 10 -5 0
-7 -4 -4 -10z"/>
<path d="M4316 1431 c-4 -7 -5 -15 -2 -18 9 -9 19 4 14 18 -4 11 -6 11 -12 0z"/>
<path d="M520 1425 c0 -6 76 -45 87 -45 4 0 -2 7 -14 15 -24 17 -73 37 -73 30z"/>
<path d="M2131 1398 c1 -18 2 -19 6 -5 2 9 9 15 14 12 5 -4 9 -1 9 4 0 6 -7
11 -15 11 -9 0 -15 -9 -14 -22z"/>
<path d="M1160 1378 c0 -14 7 -28 15 -32 19 -7 19 13 0 38 -14 19 -15 19 -15
-6z"/>
<path d="M1645 1390 c3 -5 13 -10 21 -10 8 0 12 5 9 10 -3 6 -13 10 -21 10 -8
0 -12 -4 -9 -10z"/>
<path d="M2983 1393 c15 -2 37 -2 50 0 12 2 0 4 -28 4 -27 0 -38 -2 -22 -4z"/>
<path d="M620 1381 c0 -5 5 -13 10 -16 6 -3 10 -2 10 4 0 5 -4 13 -10 16 -5 3
-10 2 -10 -4z"/>
<path d="M2770 1376 l-85 -12 57 -7 c34 -4 68 -3 84 3 15 6 33 9 41 6 7 -3 13
-1 13 4 0 5 17 11 38 13 29 3 27 4 -13 4 -27 0 -88 -5 -135 -11z"/>
<path d="M651 1356 c2 -2 20 -11 39 -20 l35 -17 -25 20 c-14 11 -31 21 -39 21
-8 0 -12 -2 -10 -4z"/>
<path d="M2623 1353 c9 -2 25 -2 35 0 9 3 1 5 -18 5 -19 0 -27 -2 -17 -5z"/>
<path d="M2518 1343 c12 -2 32 -2 45 0 12 2 2 4 -23 4 -25 0 -35 -2 -22 -4z"/>
<path d="M2305 1325 c-59 -7 -82 -12 -55 -13 25 0 88 5 140 12 52 8 77 13 55
13 -22 0 -85 -5 -140 -12z"/>
<path d="M2833 1308 c-21 -30 -22 -48 -3 -48 14 0 43 61 33 71 -4 4 -18 -6
-30 -23z"/>
<path d="M742 1322 c-8 -6 -1 -13 23 -25 49 -23 54 -21 23 8 -31 28 -29 27
-46 17z"/>
<path d="M892 1311 c-11 -7 -11 -9 2 -14 10 -4 16 -1 16 8 0 17 -1 17 -18 6z"/>
<path d="M2148 1303 c12 -2 30 -2 40 0 9 3 -1 5 -23 4 -22 0 -30 -2 -17 -4z"/>
<path d="M2534 1296 c-10 -8 -16 -17 -13 -20 3 -3 14 3 24 14 21 23 17 26 -11
6z"/>
<path d="M1357 1276 c-15 -12 -15 -15 -2 -26 8 -7 15 -9 15 -4 0 5 4 3 9 -4 6
-10 10 -10 21 3 11 14 11 16 -1 13 -9 -2 -13 4 -11 15 3 20 -6 21 -31 3z"/>
<path d="M1550 1236 c0 -15 18 -31 26 -23 7 7 -7 37 -17 37 -5 0 -9 -6 -9 -14z"/>
<path d="M945 1210 c96 -47 361 -168 470 -215 55 -24 163 -70 239 -104 77 -34
141 -61 143 -61 3 0 -3 7 -11 15 -9 9 -20 24 -26 33 -8 12 -13 14 -16 5 -3 -7
-10 -13 -16 -13 -6 0 -8 18 -5 48 3 26 3 39 1 30 -3 -10 -9 -18 -14 -18 -5 0
-7 -11 -4 -25 5 -27 -5 -32 -24 -12 -7 6 -16 13 -20 13 -23 5 -60 20 -99 41
-24 12 -49 23 -55 23 -6 0 -43 15 -82 34 -39 18 -82 36 -94 41 -20 6 -92 41
-152 73 -48 26 -83 42 -95 42 -7 0 -18 7 -25 15 -7 9 -15 13 -17 11 -3 -2 -34
9 -70 25 -84 38 -106 37 -28 -1z"/>
<path d="M2161 1192 c-5 -8 -6 -23 -4 -33 3 -11 1 -19 -4 -19 -13 0 -33 -45
-33 -75 0 -22 4 -25 33 -24 17 0 55 4 82 9 47 7 47 7 13 9 -32 1 -38 4 -38 24
1 20 2 21 14 5 7 -10 16 -18 20 -18 11 0 6 66 -6 79 -9 9 -9 12 -1 7 8 -4 9 2
4 21 -6 22 -14 28 -39 29 -20 1 -36 -4 -41 -14z"/>
<path d="M1587 1159 c7 -7 15 -10 18 -7 3 3 -2 9 -12 12 -14 6 -15 5 -6 -5z"/>
<path d="M2988 1143 c7 -3 16 -2 19 1 4 3 -2 6 -13 5 -11 0 -14 -3 -6 -6z"/>
<path d="M2803 1123 c9 -2 23 -2 30 0 6 3 -1 5 -18 5 -16 0 -22 -2 -12 -5z"/>
<path d="M1766 1104 c-3 -8 -1 -14 3 -14 5 0 17 -3 25 -6 12 -4 15 -2 10 9 -8
22 -31 29 -38 11z"/>
<path d="M2745 1110 c3 -5 0 -10 -7 -12 -9 -3 -9 -6 0 -12 7 -4 12 -2 12 4 0
6 4 9 9 5 5 -3 12 -1 15 4 3 5 -3 11 -14 14 -11 3 -18 1 -15 -3z"/>
<path d="M2370 1070 c0 -11 14 -11 50 0 22 7 21 8 -12 9 -21 1 -38 -3 -38 -9z"/>
<path d="M2303 1063 c9 -2 25 -2 35 0 9 3 1 5 -18 5 -19 0 -27 -2 -17 -5z"/>
<path d="M3396 1035 c4 -8 8 -15 10 -15 2 0 4 7 4 15 0 8 -4 15 -10 15 -5 0
-7 -7 -4 -15z"/>
<path d="M2125 950 c-3 -5 1 -10 10 -10 9 0 13 5 10 10 -3 6 -8 10 -10 10 -2
0 -7 -4 -10 -10z"/>
</g>
</svg>
